<?xml version="1.0" encoding="iso-8859-1"?>
<!-- Generator: Adobe Illustrator 16.0.0, SVG Export Plug-In . SVG Version: 6.00 Build 0)  -->
<!DOCTYPE svg PUBLIC "-//W3C//DTD SVG 1.1//EN" "http://www.w3.org/Graphics/SVG/1.1/DTD/svg11.dtd">
<svg version="1.1" id="Capa_1" xmlns="http://www.w3.org/2000/svg" xmlns:xlink="http://www.w3.org/1999/xlink" x="0px" y="0px"
	 width="143.237px" height="143.237px" viewBox="0 0 143.237 143.237" style="enable-background:new 0 0 143.237 143.237;"
	 xml:space="preserve">
<g>
	<g>
		<path d="M127.25,28.472H93.527L73.029,0.711C72.698,0.267,72.18,0.003,71.628,0c-0.003,0-0.007,0-0.01,0
			c-0.55,0-1.067,0.26-1.398,0.698L49.282,28.472H15.988c-0.967,0-1.752,0.785-1.752,1.752v111.261c0,0.969,0.785,1.752,1.752,1.752
			H127.25c0.968,0,1.752-0.783,1.752-1.752V30.224C129.001,29.257,128.221,28.472,127.25,28.472z M71.605,4.683l17.569,23.789
			H53.669L71.605,4.683z M125.497,139.733H17.74V31.977h107.756V139.733z"/>
		<path d="M22.559,38.547v94.616c0,0.968,0.785,1.752,1.752,1.752h94.616c0.969,0,1.752-0.784,1.752-1.752V38.547
			c0-0.967-0.783-1.752-1.752-1.752H24.311C23.344,36.795,22.559,37.58,22.559,38.547z M26.063,40.299h91.111v91.112H26.063V40.299z
			"/>
	</g>
</g>
<g>
</g>
<g>
</g>
<g>
</g>
<g>
</g>
<g>
</g>
<g>
</g>
<g>
</g>
<g>
</g>
<g>
</g>
<g>
</g>
<g>
</g>
<g>
</g>
<g>
</g>
<g>
</g>
<g>
</g>
</svg>
